<?xml version="1.0" encoding="UTF-8"?>
<svg xmlns="http://www.w3.org/2000/svg" xmlns:xlink="http://www.w3.org/1999/xlink" width="24pt" height="16pt" viewBox="0 0 24 16" version="1.1">
<defs>
<filter id="alpha" filterUnits="objectBoundingBox" x="0%" y="0%" width="100%" height="100%">
  <feColorMatrix type="matrix" in="SourceGraphic" values="0 0 0 0 1 0 0 0 0 1 0 0 0 0 1 0 0 0 1 0"/>
</filter>
<mask id="mask0">
  <g filter="url(#alpha)">
<rect x="0" y="0" width="24" height="16" style="fill:rgb(0%,0%,0%);fill-opacity:0.701961;stroke:none;"/>
  </g>
</mask>
<clipPath id="clip1">
  <rect width="24" height="16"/>
</clipPath>
<g id="surface6" clip-path="url(#clip1)">
<path style=" stroke:none;fill-rule:evenodd;fill:rgb(0%,0%,0%);fill-opacity:1;" d="M 19.660156 1.988281 C 19.660156 1.988281 19.832031 4.476562 19.148438 4.988281 C 18.460938 5.503906 13.402344 10.609375 13.402344 10.609375 L 14.347656 11.679688 L 20.476562 7.519531 L 20.945312 2.074219 Z M 19.660156 1.988281 "/>
</g>
<mask id="mask1">
  <g filter="url(#alpha)">
<rect x="0" y="0" width="24" height="16" style="fill:rgb(0%,0%,0%);fill-opacity:0.4;stroke:none;"/>
  </g>
</mask>
<clipPath id="clip2">
  <rect width="24" height="16"/>
</clipPath>
<g id="surface9" clip-path="url(#clip2)">
<path style=" stroke:none;fill-rule:evenodd;fill:rgb(100%,100%,100%);fill-opacity:1;" d="M 19.3125 0.542969 L 17.871094 2.707031 C 17.871094 2.707031 16.617188 3.019531 15.980469 3.414062 C 15.347656 3.8125 13.347656 5.269531 8.929688 4.957031 C 4.511719 4.644531 3.855469 3.699219 2.898438 3.664062 C 1.9375 3.628906 0.492188 3.796875 0.140625 4.0625 C 0.125 4.078125 0.109375 4.089844 0.0976562 4.105469 C 0.925781 3.984375 2.144531 4.007812 3 4.164062 C 4.644531 4.464844 6.152344 5.460938 9.992188 5.359375 C 15.445312 5.207031 16.082031 3.507812 16.84375 3.308594 C 17.898438 3.027344 19.890625 2.617188 19.3125 0.542969 Z M 19.3125 0.542969 "/>
</g>
<mask id="mask2">
  <g filter="url(#alpha)">
<rect x="0" y="0" width="24" height="16" style="fill:rgb(0%,0%,0%);fill-opacity:0.4;stroke:none;"/>
  </g>
</mask>
<clipPath id="clip3">
  <rect width="24" height="16"/>
</clipPath>
<g id="surface12" clip-path="url(#clip3)">
<path style=" stroke:none;fill-rule:evenodd;fill:rgb(0%,0%,0%);fill-opacity:1;" d="M 1.738281 7.007812 C 2.660156 7.8125 4.074219 8.683594 6.167969 9.214844 C 6.671875 9.34375 7.1875 9.429688 7.703125 9.480469 L 9.363281 9.140625 C 6.605469 9.574219 3.253906 7.886719 1.738281 7.007812 Z M 1.738281 7.007812 "/>
</g>
<mask id="mask3">
  <g filter="url(#alpha)">
<rect x="0" y="0" width="24" height="16" style="fill:rgb(0%,0%,0%);fill-opacity:0.6;stroke:none;"/>
  </g>
</mask>
<clipPath id="clip4">
  <rect width="24" height="16"/>
</clipPath>
<g id="surface15" clip-path="url(#clip4)">
<path style=" stroke:none;fill-rule:evenodd;fill:rgb(0%,0%,0%);fill-opacity:1;" d="M 20.027344 5.847656 C 19.378906 7.117188 18.003906 9.332031 15.890625 10.308594 C 13.105469 11.59375 5.945312 11.421875 5.773438 11.082031 C 5.730469 10.996094 5.710938 11.15625 5.769531 11.464844 L 5.773438 11.472656 L 5.859375 11.765625 C 5.859375 11.765625 5.855469 11.765625 5.84375 11.769531 C 5.847656 11.785156 5.855469 11.804688 5.859375 11.820312 C 5.867188 11.839844 5.871094 11.859375 5.878906 11.882812 C 5.890625 11.921875 5.90625 11.960938 5.917969 12.003906 C 5.925781 12.015625 5.929688 12.03125 5.933594 12.042969 C 5.941406 12.070312 5.953125 12.097656 5.964844 12.125 C 5.976562 12.15625 5.988281 12.191406 6 12.222656 C 6.011719 12.246094 6.023438 12.269531 6.03125 12.292969 C 6.046875 12.324219 6.058594 12.355469 6.074219 12.390625 C 6.082031 12.40625 6.085938 12.421875 6.09375 12.4375 C 6.140625 12.535156 6.191406 12.640625 6.25 12.75 C 6.253906 12.75 6.253906 12.753906 6.257812 12.757812 C 6.257812 12.757812 6.257812 12.757812 6.257812 12.761719 C 6.273438 12.789062 6.289062 12.816406 6.308594 12.84375 C 6.308594 12.847656 6.308594 12.851562 6.3125 12.851562 C 6.328125 12.882812 6.347656 12.914062 6.363281 12.941406 C 6.382812 12.976562 6.402344 13.007812 6.425781 13.039062 C 6.425781 13.039062 6.425781 13.042969 6.425781 13.042969 C 6.445312 13.074219 6.464844 13.105469 6.484375 13.136719 C 6.484375 13.136719 6.488281 13.136719 6.488281 13.136719 C 8.234375 13.902344 14.4375 12.429688 17.21875 10.394531 C 19.175781 8.960938 19.816406 6.96875 20.027344 5.847656 Z M 20.027344 5.847656 "/>
</g>
<mask id="mask4">
  <g filter="url(#alpha)">
<rect x="0" y="0" width="24" height="16" style="fill:rgb(0%,0%,0%);fill-opacity:0.4;stroke:none;"/>
  </g>
</mask>
<clipPath id="clip5">
  <rect width="24" height="16"/>
</clipPath>
<g id="surface18" clip-path="url(#clip5)">
<path style=" stroke:none;fill-rule:evenodd;fill:rgb(0%,0%,0%);fill-opacity:1;" d="M 21.148438 1.667969 C 21.078125 1.667969 21 1.675781 20.917969 1.691406 C 21.1875 2.515625 22.476562 6.535156 22.359375 7.304688 C 22.234375 8.164062 20.867188 11.28125 18.632812 12.625 C 17.132812 13.527344 13.875 14.941406 12.71875 15.15625 C 11.984375 15.292969 10.554688 15.492188 9.433594 15.433594 C 9.644531 15.519531 9.867188 15.597656 10.105469 15.671875 C 14.433594 17 19.964844 14.085938 20.945312 13.140625 C 22.191406 11.9375 24.546875 8.851562 23.859375 6.535156 C 23.175781 4.21875 22.660156 4.902344 22.277344 4.261719 C 21.890625 3.617188 21.460938 2.375 21.460938 1.859375 C 21.460938 1.714844 21.332031 1.664062 21.148438 1.667969 Z M 21.148438 1.667969 "/>
</g>
<mask id="mask5">
  <g filter="url(#alpha)">
<rect x="0" y="0" width="24" height="16" style="fill:rgb(0%,0%,0%);fill-opacity:0.4;stroke:none;"/>
  </g>
</mask>
<clipPath id="clip6">
  <rect width="24" height="16"/>
</clipPath>
<g id="surface21" clip-path="url(#clip6)">
<path style=" stroke:none;fill-rule:evenodd;fill:rgb(100%,100%,100%);fill-opacity:1;" d="M 19.210938 0.933594 C 19.175781 0.9375 19.152344 0.957031 19.144531 1 C 19.105469 1.34375 17.476562 3.316406 17.476562 3.316406 C 16.144531 4.558594 9.242188 7.769531 6.71875 7.820312 C 4.832031 7.734375 2.816406 7.605469 2.390625 7.734375 C 2.046875 7.695312 1.1875 7.820312 1.1875 7.820312 C 1.1875 7.820312 1.171875 7.84375 1.152344 7.882812 C 1.621094 8.019531 2.476562 8.210938 3.855469 8.25 C 7.046875 8.332031 8.382812 8.160156 11.148438 7.082031 C 14.046875 5.953125 17.933594 4.5 19.457031 1.03125 C 19.355469 0.964844 19.265625 0.925781 19.210938 0.933594 Z M 19.210938 0.933594 "/>
</g>
<mask id="mask6">
  <g filter="url(#alpha)">
<rect x="0" y="0" width="24" height="16" style="fill:rgb(0%,0%,0%);fill-opacity:0.4;stroke:none;"/>
  </g>
</mask>
<clipPath id="clip7">
  <rect width="24" height="16"/>
</clipPath>
<g id="surface24" clip-path="url(#clip7)">
<path style=" stroke:none;fill-rule:evenodd;fill:rgb(0%,0%,0%);fill-opacity:1;" d="M 19.378906 3.929688 C 19.027344 5.136719 17.609375 8.328125 12.160156 10.179688 C 5.5 12.445312 3.875 11.140625 1.722656 10.523438 C 1.757812 10.566406 1.792969 10.609375 1.832031 10.652344 C 7.105469 14.726562 14.945312 10.996094 17.648438 8.851562 C 20.347656 6.707031 19.617188 4.816406 19.402344 4.046875 C 19.394531 4.007812 19.386719 3.96875 19.378906 3.929688 Z M 19.378906 3.929688 "/>
</g>
<mask id="mask7">
  <g filter="url(#alpha)">
<rect x="0" y="0" width="24" height="16" style="fill:rgb(0%,0%,0%);fill-opacity:0.301961;stroke:none;"/>
  </g>
</mask>
<clipPath id="clip8">
  <rect width="24" height="16"/>
</clipPath>
<g id="surface27" clip-path="url(#clip8)">
<path style=" stroke:none;fill-rule:evenodd;fill:rgb(100%,100%,100%);fill-opacity:1;" d="M 20.007812 0 C 19.710938 0.0234375 18.957031 0.632812 18.972656 0.84375 C 18.980469 0.9375 19.117188 1.109375 19.308594 1.296875 C 19.324219 0.9375 19.5 0.417969 20.328125 0.105469 C 20.21875 0.0585938 20.125 0.0234375 20.0625 0.00390625 C 20.046875 0 20.027344 0 20.007812 0 Z M 20.007812 0 "/>
</g>
<mask id="mask8">
  <g filter="url(#alpha)">
<rect x="0" y="0" width="24" height="16" style="fill:rgb(0%,0%,0%);fill-opacity:0.4;stroke:none;"/>
  </g>
</mask>
<clipPath id="clip9">
  <rect width="24" height="16"/>
</clipPath>
<g id="surface30" clip-path="url(#clip9)">
<path style=" stroke:none;fill-rule:evenodd;fill:rgb(0%,0%,0%);fill-opacity:1;" d="M 21.351562 0.695312 C 21.359375 1.476562 20.6875 1.808594 20.222656 1.941406 C 20.257812 1.957031 20.292969 1.972656 20.324219 1.984375 C 20.496094 2.027344 21.441406 1.941406 21.484375 1.769531 C 21.527344 1.597656 21.527344 0.871094 21.355469 0.699219 C 21.351562 0.695312 21.351562 0.695312 21.351562 0.695312 Z M 21.351562 0.695312 "/>
</g>
</defs>
<g id="surface1">
<path style=" stroke:none;fill-rule:evenodd;fill:rgb(100%,78.039216%,0.392157%);fill-opacity:1;" d="M 19.660156 1.988281 C 19.660156 1.988281 19.832031 4.476562 19.148438 4.988281 C 18.460938 5.503906 13.402344 10.609375 13.402344 10.609375 L 14.347656 11.679688 L 20.476562 7.519531 L 20.945312 2.074219 Z M 19.660156 1.988281 "/>
<use xlink:href="#surface6" mask="url(#mask0)"/>
<path style=" stroke:none;fill-rule:evenodd;fill:rgb(100%,78.039216%,0.392157%);fill-opacity:1;" d="M 19.4375 0.355469 L 17.871094 2.707031 C 17.871094 2.707031 16.617188 3.019531 15.980469 3.414062 C 15.347656 3.8125 13.347656 5.269531 8.929688 4.957031 C 4.511719 4.644531 3.855469 3.699219 2.898438 3.664062 C 1.9375 3.628906 0.492188 3.796875 0.140625 4.0625 C -0.210938 4.332031 0.207031 5.136719 0.207031 5.136719 C 0.207031 5.136719 1.492188 8.027344 6.167969 9.214844 C 10.84375 10.402344 16.378906 7.953125 16.378906 7.953125 L 20.242188 0.847656 Z M 19.4375 0.355469 "/>
<use xlink:href="#surface9" mask="url(#mask1)"/>
<use xlink:href="#surface12" mask="url(#mask2)"/>
<path style=" stroke:none;fill-rule:evenodd;fill:rgb(100%,78.039216%,0.392157%);fill-opacity:1;" d="M 19.789062 2.03125 C 19.789062 2.03125 20.691406 4.390625 20.433594 4.988281 C 20.175781 5.589844 18.675781 9.023438 15.890625 10.308594 C 13.105469 11.597656 5.945312 11.425781 5.777344 11.082031 C 5.605469 10.738281 5.777344 14.339844 10.105469 15.671875 C 14.433594 17 19.964844 14.085938 20.945312 13.140625 C 22.191406 11.9375 24.546875 8.851562 23.859375 6.535156 C 23.175781 4.21875 22.660156 4.902344 22.277344 4.261719 C 21.890625 3.617188 21.460938 2.375 21.460938 1.859375 C 21.460938 1.34375 19.832031 2.03125 19.789062 2.03125 Z M 19.789062 2.03125 "/>
<use xlink:href="#surface15" mask="url(#mask3)"/>
<use xlink:href="#surface18" mask="url(#mask4)"/>
<path style=" stroke:none;fill-rule:evenodd;fill:rgb(100%,78.039216%,0.392157%);fill-opacity:1;" d="M 20.003906 2.460938 C 20.003906 2.460938 19.191406 3.273438 19.402344 4.046875 C 19.617188 4.816406 20.347656 6.707031 17.648438 8.851562 C 14.945312 10.996094 7.105469 14.726562 1.832031 10.652344 C 0.332031 8.9375 1.191406 7.820312 1.191406 7.820312 C 1.191406 7.820312 2.046875 7.695312 2.390625 7.734375 C 2.820312 7.605469 4.832031 7.734375 6.71875 7.820312 C 9.242188 7.769531 16.148438 4.5625 17.476562 3.316406 C 17.476562 3.316406 19.105469 1.34375 19.148438 1 C 19.191406 0.65625 20.304688 1.6875 20.347656 1.988281 C 20.390625 2.289062 20.003906 2.417969 20.003906 2.460938 Z M 20.003906 2.460938 "/>
<use xlink:href="#surface21" mask="url(#mask5)"/>
<use xlink:href="#surface24" mask="url(#mask6)"/>
<path style=" stroke:none;fill-rule:evenodd;fill:rgb(53.333333%,29.019608%,7.45098%);fill-opacity:1;" d="M 20.0625 0.00390625 C 19.816406 -0.0585938 18.957031 0.617188 18.972656 0.84375 C 18.988281 1.070312 19.804688 1.804688 20.324219 1.984375 C 20.496094 2.027344 21.441406 1.941406 21.484375 1.769531 C 21.527344 1.597656 21.527344 0.867188 21.355469 0.695312 C 21.183594 0.527344 20.347656 0.078125 20.0625 0.00390625 Z M 20.0625 0.00390625 "/>
<path style=" stroke:none;fill-rule:evenodd;fill:rgb(53.333333%,29.019608%,7.45098%);fill-opacity:1;" d="M 20.0625 0.00390625 C 19.816406 -0.0585938 18.957031 0.617188 18.972656 0.84375 C 18.988281 1.070312 19.804688 1.804688 20.324219 1.984375 C 20.496094 2.027344 21.441406 1.941406 21.484375 1.769531 C 21.527344 1.597656 21.527344 0.867188 21.355469 0.695312 C 21.183594 0.527344 20.347656 0.078125 20.0625 0.00390625 Z M 20.0625 0.00390625 "/>
<use xlink:href="#surface27" mask="url(#mask7)"/>
<use xlink:href="#surface30" mask="url(#mask8)"/>
</g>
</svg>
